<?xml version="1.0" encoding="utf-8"?><!-- Uploaded to: SVG Repo, www.svgrepo.com, Generator: SVG Repo Mixer Tools -->
<svg width="800px" height="800px" viewBox="0 0 36 36" xmlns="http://www.w3.org/2000/svg" xmlns:xlink="http://www.w3.org/1999/xlink" aria-hidden="true" role="img" class="iconify iconify--twemoji" preserveAspectRatio="xMidYMid meet"><path fill="#DE3830" d="M32 5H6.5L19 13.5h17V9a4 4 0 0 0-4-4z"></path><path fill="#002395" d="M6.5 31H32a4 4 0 0 0 4-4v-4.5H19L6.5 31z"></path><path fill="#141414" d="M0 11v14l10.5-7z"></path><path fill="#FFB611" d="M0 9v2l10.5 7L0 25v2l13.5-9z"></path><path fill="#007A4D" d="M3.541 5.028A4 4 0 0 0 0 9l13.5 9L0 27a4 4 0 0 0 3.541 3.972L18.5 20.5H36v-5H18.5L3.541 5.028z"></path><path fill="#EEE" d="M6.5 5H4c-.156 0-.308.011-.459.028L18.5 15.5H36v-2H19L6.5 5zM3.541 30.972c.151.017.303.028.459.028h2.5L19 22.5h17v-2H18.5L3.541 30.972z"></path></svg>