<?xml version="1.0" encoding="iso-8859-1"?>
<!-- Uploaded to: SVG Repo, www.svgrepo.com, Generator: SVG Repo Mixer Tools -->
<svg height="800px" width="800px" version="1.1" id="Layer_1" xmlns="http://www.w3.org/2000/svg" xmlns:xlink="http://www.w3.org/1999/xlink" 
	 viewBox="0 0 496.2 496.2" xml:space="preserve">
<path style="fill:#EA4949;" d="M496.2,248.1C496.2,111.1,385.1,0,248.1,0S0,111.1,0,248.1s111.1,248.1,248.1,248.1
	S496.2,385.1,496.2,248.1z"/>
<path style="fill:#F25872;" d="M424.8,185.1c-0.5-0.3-1.1-0.4-1.6-0.2l-77,24.9c-1,0.3-1.5,1.3-1.3,2.3l14.5,72.1
	c-2.7-0.3-5.5-0.1-8.3,0.6c-1.3,0.3-2.7,0.8-4,1.3c-5.7,2.2-10,5.8-12.9,10.5c-2.9,4.9-3.5,9.8-1.5,14.6c1.9,4.7,5.7,7.9,11.2,9.6
	c4.1,1.2,8.4,1.3,12.6,0.3c1.2-0.3,2.5-0.7,3.8-1.2c5-2.1,9-5.1,11.8-9.1c2.8-4.1,4-8.4,3.5-12.8c0-0.1,0-0.2,0-0.2l-0.1-0.6
	c-0.4-2.4-1.7-9-3.9-20.2c-2.2-11.1-4.3-21.8-6.3-31.9l-2.6-13.4l56-19.7l8.9,48.4c-3-0.4-6.1-0.3-9.2,0.5c-1.3,0.3-2.6,0.7-3.8,1.2
	c-5.7,2.2-10,5.8-12.8,10.6c-2.8,5-3.3,9.9-1.5,14.6c1.9,4.7,5.6,7.9,11.1,9.5c4.1,1.2,8.3,1.2,12.6,0.2c1.3-0.3,2.6-0.7,3.9-1.3
	c5.1-2.1,9-5.2,11.9-9.4c2.9-4.3,3.9-8.7,3-13.1c-0.4-2.5-6-30.9-17-86.9C425.7,185.9,425.3,185.4,424.8,185.1z"/>
<g>
	<path style="fill:#DFA17C;" d="M259.3,258.7c0,0-17.4-11.2-29-18.1c0,0-10.8-4.8-6.8-30.5c0,0-18.1-22.9-73.8-1.2
		c0,0,24.5,77.4,33.3,97.1C191.7,325.8,256.6,271.6,259.3,258.7z"/>
	<path style="fill:#DFA17C;" d="M157.3,139.4c0,0-12.3-0.5-19-1.3c0,0-13.6-4.3-26.2,23.3l-37.5,64.1l82,39.6l6-8.3l-53.7-41.9
		c0,0,19.3-32.1,21.4-38l11.2,16.6l18.2-27.3L157.3,139.4z"/>
	<path style="fill:#DFA17C;" d="M207.3,146c-16.8-2.8-13.4-14.8-13.4-14.8l-25.1-4.2l-7.5,11.4l11.9,47.2l43.9,0.2
		C217.2,185.7,217,147.6,207.3,146z"/>
	<path style="fill:#DFA17C;" d="M393.8,149.3c0,0-13.4,3-20.7,2.9c-17.3-0.3-40.7-3.5-62.7,0.9c0,0-77.7-11.7-99-6.7l18.5,32.1
		c0,0,64.3-4,76.6-7.2c0,0,52.5-7.7,90.5-10.9L393.8,149.3z"/>
</g>
<g>
	<path style="fill:#FFFFFF;" d="M207.3,146c0,0,11.8,25.8-2.7,37.3l-7.5,0.3c0,0-32.6-33.7-35.8-45.2l-5.9,0.5
		c0,0,5.9,16.6-0.8,30.2c0,0-12.3,18.2-13.1,24.3c-0.8,6.2,2.1,11.2,8,15.5c0,0,29.4,11.8,47.9-7l6.4,0.5c0,0,12,6.7,18.7,8.8
		c0,0,16.3-8.3,12.3-26.2c-2.1-9.6-18.7-34.6-21-38.4C213.4,145.8,207.3,146,207.3,146z"/>
	<path style="fill:#FFFFFF;" d="M259.3,258.7c-19.3,25.7-76,49.8-76,49.8l7.5,36.9c-4.6,14.5-10.5,95.5-13.5,140.5
		c11.3,3.4,23,5.9,34.9,7.7l30.1-158l6.1-2.6l74.3,151.8c11.9-3.7,23.4-8.3,34.4-13.7l-59.2-155.6
		C274.4,270,259.3,258.7,259.3,258.7z"/>
</g>
<path style="fill:#E5C0AE;" d="M259.3,258.7c0,0,2.1,1.6,6,5.9c0,0-15.3,16.1-36.6,28.3c-21.4,12.2-43.7,23.6-43.7,23.6l-1.6-8
	C183.3,308.5,240,284.4,259.3,258.7z"/>
<ellipse transform="matrix(0.5882 0.8087 -0.8087 0.5882 302.1227 -65.8772)" style="fill:#C18161;" cx="215.749" cy="263.727" rx="3.4" ry="2.4"/>
<g>
	
		<ellipse transform="matrix(0.5877 0.8091 -0.8091 0.5877 302.3317 -65.8191)" style="fill:#DFA17C;" cx="215.745" cy="263.727" rx="1.6" ry="1.2"/>
	<path style="fill:#DFA17C;" d="M413.9,152c0,0,2.6-2.6,4.5-3.5c1-0.5,2.6-2.3,4-4.3c1.4-1.9,3.2-3.2,3-4c-0.7-2.4-3.9-1.4-4.2-1.2
		c-2.9,1.4-5.8,4-5.8,4l-3.9,1.9L413.9,152z"/>
	<path style="fill:#DFA17C;" d="M412.2,133.3c-0.8,0.9,1.9,3.5,2.9,4.5l0,0c1,1,2.1,0.8,2.1,0.8l5.9-4c0,0,8.8-4.2,7.8-6
		c-0.8-1.6-2.2-0.6-3.8-0.1l-6.4,2.1L412.2,133.3z"/>
	<path style="fill:#DFA17C;" d="M397,160.3c1.3,0.1,15.3-6.3,17.6-8.9l-1-7.3l1.6-3c0.8-1,2.7-3,2.7-3l-4-5.2
		c-1.7,0.5-2.4,0.8-3.8,2.1c-1.9,1.7-10.2,9.1-16.3,14.5C393.8,149.3,395.8,160.2,397,160.3z"/>
	<path style="fill:#DFA17C;" d="M168,275.8c0,0,0.2,3,0.9,4.6c0.4,0.9,0.4,2.8,0.2,4.8s0.3,3.7-0.4,4.2c-1.8,1.2-3.3-1.2-3.5-1.5
		c-1.1-2.4-1.5-5.6-1.5-5.6l-1.5-3.3L168,275.8z"/>
	<path style="fill:#DFA17C;" d="M156.2,286.9c0-1,3.2-1.2,4.5-1.4l0,0c1.2-0.1,1.9,0.6,1.9,0.6l1.6,5.7c0,0,3.4,7.3,1.7,8
		c-1.4,0.6-1.8-0.8-2.6-1.9l-2.9-4.7L156.2,286.9z"/>
	<path style="fill:#DFA17C;" d="M162.6,256.8c0.9,0.6,5.5,16.9,5.5,19.7l-4.8,4.2l-0.7,2.8c0,1.1,0,3.4,0,3.4l-5.6,1.2
		c-0.9-1.2-1.1-1.8-1.3-3.3c-0.3-2.1-0.6-14.3-1.4-21C154.2,263.8,161.7,256.2,162.6,256.8z"/>
	<path style="fill:#DFA17C;" d="M164.5,136.6c3.6-3.5,5.5-16.3,5.5-16.3c-8.2-10.6-18.4-19.7-19.3-40.3
		c-0.9-20.7,22.2-30.3,22.2-30.3c19.9-9.2,36.5,5.8,36.5,5.8c2.6,3.1,5.1,8.6,6.8,13.2c0.5,1.4,0.5,3.3,0.7,3.8c0.5,1.2,2,4.1,2,4.1
		c3.1,5.5,8.8,8,8.8,8c6,2.5,1.7,7.2,1.7,7.2c-0.6,1-0.3,2.2-0.2,2.4l0.1,11c-0.8,0.6-0.9,2.8-0.9,2.8c1,11.2-10.9,11.5-10.9,11.5
		c-15.1-0.9-18.5,5.2-20.2,7.2c-6.5,7.1-8.5,26-8.5,26s-8.6-1.9-13.9-5.5C169.5,143.6,164.5,136.6,164.5,136.6z"/>
</g>
<path style="fill:#38281F;" d="M214.4,71c0,0-7.1-1.1-10.2-0.1c-1.2,0.4-3.5,3.8-3.5,3.8s3.2-1.4,4.4-1.8s9.5-0.8,9.5-0.8
	S215.7,71.4,214.4,71z"/>
<path style="fill:#644B44;" d="M215.5,76c0,0-0.4,1.9-2,3.2c-1.7,1.4-4.8,2.1-8.2-0.4c0,0,4.6-0.5,6.8-1.1
	C214.4,77.2,215.5,76,215.5,76z"/>
<path style="fill:#38281F;" d="M216.5,65c-3.2,0.6-15.6-1.4-24.4,4.2c-4.4,2.8-8.7,6.6-11.9,11.9c-4.7,7.8-6.9,17.3-6.8,26.6
	c0.1,9.2-3.8,13.7-3.8,13.7s-38.7-36.9-10.9-63.6c8.9-8.6,38.1-24.1,57.5,3.8C216.5,62,217.3,64.8,216.5,65z"/>
<ellipse transform="matrix(-0.3581 -0.9337 0.9337 -0.3581 148.9912 290.0755)" style="fill:#DFA17C;" cx="174.209" cy="93.822" rx="7.7" ry="6.1"/>
<path style="fill:#38281F;" d="M163.6,54.3c0,0-19.7-24.3-39.1-3.8C119,56.3,114,63.6,117.2,78c0,0,5.9,17.8-2.2,23.7
	c0,0,16.4,1.6,17-10.9c0.4-7.7,5.8-33.5,22.8-25.7L163.6,54.3z"/>
</svg>