<?xml version="1.0" encoding="utf-8"?>

<!-- Uploaded to: SVG Repo, www.svgrepo.com, Generator: SVG Repo Mixer Tools -->
<svg fill="#000000" height="800px" width="800px" version="1.1" id="Icons" xmlns="http://www.w3.org/2000/svg" xmlns:xlink="http://www.w3.org/1999/xlink" 
	 viewBox="0 0 32 32" xml:space="preserve">
<g>
	<path d="M21,18c0,0.6-0.4,1-1,1s-1-0.4-1-1v-2.2c-1,0.1-2,0.2-3,0.2s-2-0.1-3-0.2V18c0,0.6-0.4,1-1,1s-1-0.4-1-1v-2.5
		c-2.5-0.6-4.6-1.5-6-2.8c0.1,5.7,1.5,11,3.9,14.6c0.1,0.1,0.1,0.2,0.2,0.2c2,1.6,4.4,2.5,6.8,2.5s4.9-0.8,6.8-2.5
		c0.1-0.1,0.1-0.1,0.2-0.2c2.4-3.6,3.8-8.9,3.9-14.6c-1.4,1.3-3.5,2.2-6,2.8V18z"/>
	<ellipse cx="16" cy="8.5" rx="11" ry="5.5"/>
</g>
</svg>