<?xml version="1.0" encoding="iso-8859-1"?>
<!-- Uploaded to: SVG Repo, www.svgrepo.com, Generator: SVG Repo Mixer Tools -->
<!DOCTYPE svg PUBLIC "-//W3C//DTD SVG 1.1//EN" "http://www.w3.org/Graphics/SVG/1.1/DTD/svg11.dtd">
<svg fill="#000000" version="1.1" id="Capa_1" xmlns="http://www.w3.org/2000/svg" xmlns:xlink="http://www.w3.org/1999/xlink" 
	 width="800px" height="800px" viewBox="0 0 24 24" xml:space="preserve">
<g>
	<path d="M22,0c-1.104,0-2,0.896-2,2v15c0,1.654-1.346,3-3,3h-4.454c0.017-0.011,0.03-0.02,0.052-0.031
		c0.09-0.057,0.24-0.292,0.264-0.607c0.022-0.315-0.055-0.434,0.103-0.586c0.156-0.151,0.226-0.291,0.151-0.572
		c-0.072-0.282-0.243-0.23-0.146-0.67c0.096-0.438,0.457-1.221,0.508-1.709c0.049-0.49,0.084-0.889,0.084-0.889
		s0.275,0.804,0.467,1.119c0.19,0.314,0.522,1.164,0.592,1.463c0.066,0.297-0.014,0.809,0.096,1.027
		c0.105,0.221,0.326,0.479,0.371,0.602c0.043,0.125,0.078,0.315-0.006,0.429c-0.085,0.112-0.204,0.186-0.204,0.186
		s-0.11,0.062,0.067,0.157c0.182,0.096,0.191,0.068,0.287,0.023c0.097-0.045,0.389-0.271,0.389-0.43
		c0-0.156-0.068-0.742-0.028-0.955c0.039-0.215,0.294-0.457,0.229-0.652c-0.062-0.196-0.104-0.225-0.309-0.444
		c-0.201-0.219-0.31-0.28-0.393-0.59c-0.057-0.204-0.053-0.808-0.09-1.283c-0.043-0.567-0.271-0.842-0.557-1.328
		c-0.217-0.372-0.441-0.799-0.521-1.136c-0.146-0.634-0.157-1.348-0.203-1.813c-0.047-0.465-0.047-0.555-0.047-0.736
		c0-0.182,0.399-0.906,0.375-1.313c-0.021-0.409-0.236-0.895-0.558-1.258c-0.278-0.321-0.324-0.624-0.4-0.899
		c-0.096-0.355-0.157-0.693,0.042-1.275c0.235-0.703,0.405-1.337,0.405-1.337s0.261,0.045,0.396,0.136
		c0.139,0.091,0.477,0.125,0.646,0.125s0.238,0.011,0.238,0.011s0.051,0.108,0.118,0.328c0.066,0.219-0.051,0.438-0.051,0.438
		s0.015,0.09,0.13,0.078c0.118-0.011,0.168-0.14,0.176-0.274c0.006-0.136-0.008-0.372-0.008-0.372s0.219,0.006,0.377,0.164
		c0.158,0.157,0.23,0.275,0.27,0.275c0.041,0,0.086,0.056,0.152,0.101c0.067,0.045,0.131-0.028,0.131-0.028s0.084-0.022,0.17-0.068
		c0.084-0.044-0.256-0.359-0.256-0.359s0.166,0.016,0.307,0.017c0.035,0,0.111,0.01,0.158-0.009c0.098-0.04,0.158-0.132,0.092-0.143
		c-0.031-0.005-0.252-0.017-0.422-0.051c-0.168-0.033-0.41-0.051-0.487-0.225c-0.079-0.174-0.157-0.337-0.214-0.36
		c-0.059-0.022-0.27-0.045-0.383-0.084c-0.112-0.04-0.178-0.136-0.373-0.198c-0.188-0.062-0.308,0.044-0.602-0.135
		c-0.291-0.18-0.347-0.506-0.527-0.618c-0.18-0.113-0.562-0.191-0.67-0.191c-0.106,0-0.242-0.153-0.281-0.181
		c-0.038-0.027-0.532-0.545-0.532-0.545s0.116,0.026,0.185,0.1c0.067,0.073,0.102-0.037,0.152-0.002
		c0.049,0.033,0.066,0.198,0.066,0.198c0.031-0.102-0.022-0.198-0.045-0.233c-0.037-0.057-0.078-0.014-0.142-0.062
		c-0.098-0.072-0.125-0.178-0.051-0.373c0.058-0.146,0.032-0.214,0.032-0.214s0.037,0.077,0.093,0.124
		c0.047,0.042,0.173-0.052,0.224-0.039c0.072,0.018-0.006,0.082,0,0.08c0.084-0.031,0.068-0.09,0.004-0.109
		c-0.062-0.019-0.074,0.022-0.119-0.062c-0.056-0.107,0.01-0.152,0.01-0.152s0.039-0.062,0.105,0.033
		c0.068,0.096,0.131-0.021,0.131-0.021c0.034,0.059,0.029,0.033,0.039,0.101c0.004,0.023,0.008-0.013,0.012-0.041
		c0.013-0.06,0.006-0.173-0.15-0.289c-0.062-0.047-0.116-0.101-0.009-0.149c0,0,0.054-0.084,0.089-0.057
		c0.027,0.025,0.031,0.08,0.023,0.115c-0.006,0.022-0.015,0.042-0.013,0.039c0.046-0.048,0.063-0.179,0.06-0.2
		c-0.012-0.151-0.143-0.299-0.274-0.362c-0.101-0.047-0.214-0.087-0.284-0.161c-0.132-0.144-0.084-0.29-0.229-0.409
		C11.954,0.117,11.769,0,11.598,0.031c-0.279,0.053-0.53,0.1-0.53,0.445c0,0.04-0.601-0.045-0.754,0.09
		c-0.151,0.135-0.448,0.445-0.573,0.743C9.617,1.607,9.668,1.911,9.769,2.04c0.103,0.129,0.078,0.158,0.185,0.287
		c0.13,0.157,0.284,0.397,0.257,0.61c-0.005,0.042-0.011,0.087-0.009,0.131c0.001,0.029,0.001,0.076,0.037,0.094
		c0.087,0.044,0.145-0.086,0.207-0.067c0.057,0.017,0.126,0.049,0.126,0.049S10.565,3.183,10.598,3.2
		c0.033,0.018,0.059-0.011,0.077,0.024c0.017,0.033,0.011,0.051,0.047,0.065c0.038,0.013,0.047-0.026,0.075,0
		c0.029,0.025,0.045,0.114,0.139,0.176c0.096,0.063,0.26-0.068,0.306-0.14c0.046-0.072,0.156-0.229,0.173-0.254
		c0.019-0.025,0.252,0.221,0.312,0.343c0.061,0.123-0.017,0.235-0.078,0.296c-0.063,0.063-0.287,0.192-0.377,0.192
		c-0.092,0-0.338,0.011-0.704,0.163C10.203,4.216,10.17,4.29,9.963,4.402C9.754,4.515,9.085,4.633,8.984,4.667
		c-0.101,0.033-0.18,0-0.18,0S8.075,3.492,7.95,3.107C7.826,2.721,7.76,2.676,7.815,2.574C7.872,2.472,8.049,2.22,8.133,2.033
		c0.066-0.145,0.228-0.339,0.202-0.5c0,0,0.096-0.083,0.096-0.112c0-0.028-0.111-0.033-0.111-0.033L8.221,1.329
		c0.032-0.01,0.163-0.058,0.214-0.102C8.47,1.194,8.46,1.158,8.375,1.169C8.281,1.181,8.115,1.206,8.042,1.23
		C7.938,1.264,7.775,1.401,7.775,1.401c0.027-0.122,0.229-0.5,0.156-0.594c-0.03-0.038-0.039-0.099-0.114,0.028
		c0,0-0.174,0.366-0.235,0.467C7.519,1.404,7.514,1.471,7.475,1.561S7.397,1.686,7.386,1.82C7.373,1.954,7.334,2.557,7.391,2.731
		C7.448,2.905,7.567,2.925,7.609,3.39c0.047,0.464,0.3,1.281,0.435,1.596c0.137,0.315,0.112,0.502,0.208,0.502
		c0.095,0,0.602-0.035,0.777-0.073c0.173-0.04,1.629-0.337,1.629-0.337s-0.034,0.409,0.136,0.782c0.17,0.374,0.565,1.631,0.611,2.13
		c0.046,0.498,0.114,1.212,0.194,1.597c0.077,0.385,0.377,1.977,0.377,2.228c0,0.25,0.109,0.74,0.109,0.944s0,0.714,0.067,0.917
		c0.066,0.205,0.158,0.307,0.17,0.442c0.013,0.135,0.058,0.282,0.058,0.351s0.101,1.993,0,2.562
		c-0.103,0.564-0.138,0.813-0.308,1.075c-0.168,0.26-0.067,0.804-0.089,1.1c-0.023,0.293-0.026,0.368-0.128,0.463
		c-0.1,0.096-0.31,0.096-0.353,0.221c-0.021,0.053-0.014,0.084-0.002,0.109H7c-1.654,0-3-1.346-3-3V2c0-1.104-0.896-2-2-2
		S0,0.896,0,2v15c0,3.859,3.141,7,7,7h10c3.859,0,7-3.141,7-7V2C24,0.896,23.104,0,22,0z M7.801,1.744
		c0.088-0.055,0.268-0.061,0.268-0.061S7.913,1.885,7.856,1.907C7.801,1.93,7.71,1.801,7.801,1.744z"/>
</g>
</svg>