<?xml version="1.0" encoding="iso-8859-1"?>
<!-- Uploaded to: SVG Repo, www.svgrepo.com, Generator: SVG Repo Mixer Tools -->
<svg version="1.1" id="Capa_1" xmlns="http://www.w3.org/2000/svg" xmlns:xlink="http://www.w3.org/1999/xlink" 
	 viewBox="0 0 466.834 466.834" xml:space="preserve">
<g>
	<g>
		<path style="fill:#45CE83;" d="M323.075,125.58c-4.521-3.969-7.574-9.997-9.569-15.569c-2.364-6.604-3.534-13.728-3.062-20.741
			c0.212-3.149,0.684-6.476,1.89-9.417c4.537,3.956,7.592,9.991,9.581,15.566c2.356,6.606,3.5,13.737,3.032,20.747
			C324.736,119.315,324.269,122.635,323.075,125.58z"/>
		<g>
			<path style="fill:#45CE83;" d="M322.677,136.231c-3.575-4.412-7.285-8.755-11.684-12.374c-4.74-3.9-10.19-6.629-15.829-8.972
				c-2.63-1.093-5.399-2.012-7.914-3.36c5.937-3.793,13.828-3.939,20.314-1.634c7.127,2.532,12.875,8.544,14.983,15.813
				C323.489,128.956,323.93,132.986,322.677,136.231z"/>
			<path style="fill:#45CE83;" d="M328.173,134.94c1.237-5.542,2.626-11.083,4.952-16.282c2.507-5.603,6.172-10.472,10.179-15.081
				c1.868-2.15,3.939-4.206,5.591-6.532c-7.004-0.753-14.136,2.63-18.917,7.581c-5.254,5.44-7.725,13.383-6.375,20.83
				C324.207,128.787,325.606,132.592,328.173,134.94z"/>
		</g>
		
			<rect x="339.729" y="133.613" transform="matrix(0.9735 -0.2287 0.2287 0.9735 -38.1587 83.7414)" style="fill:#F28F4C;" width="5.087" height="145.832"/>
		<path style="fill:#F4E84A;" d="M332.228,115.591c-1.207,0.284-2.309,0.775-3.294,1.411c-2.336-1.554-5.278-2.185-8.224-1.492
			c-2.947,0.692-5.3,2.567-6.7,4.998c-1.166-0.131-2.371-0.08-3.578,0.203c-5.652,1.328-9.158,6.987-7.831,12.639
			c1.328,5.653,6.987,9.159,12.639,7.831c2.947-0.692,18.85-4.428,21.796-5.12c5.653-1.328,9.159-6.987,7.831-12.639
			C343.539,117.769,337.88,114.263,332.228,115.591z"/>
		<path style="fill:#45CE83;" d="M333.636,134.168c1.028,4.376-1.686,8.757-6.062,9.785c-4.376,1.028-8.757-1.686-9.785-6.063
			L333.636,134.168z"/>
	</g>
	<path style="fill:#45CE83;" d="M258.648,90.27c0,0,10.948-13.623,36.723-8.197c25.775,5.426,28.488-18.314,11.531-21.027
		c8.818-1.357,16.022-9.664,14.244-17.636c-2.269-10.174-14.922-8.818-25.775-2.713c6.105-10.853,7.461-20.349-1.357-23.74
		S273.666,27.81,273.666,27.81s7.461-18.314-6.105-22.384c-13.566-4.07-19.67,15.601-19.67,15.601S241.669,0,229.46,0
		c-12.209,0-18.431,21.027-18.431,21.027s-6.105-19.67-19.67-15.601c-13.566,4.07-6.105,22.384-6.105,22.384
		s-11.531-14.244-20.349-10.853c-8.818,3.391-7.461,12.888-1.357,23.74c-10.853-6.105-23.062-6.783-25.775,2.713
		c-2.244,7.853,5.426,16.279,14.244,17.636c-16.957,2.713-14.244,26.453,11.531,21.027s36.723,8.197,36.723,8.197H258.648z"/>
	<path style="fill:#F4E84A;" d="M243.616,90.213c0,0,5.31-15.39,17.811-12.446s13.817-9.936,5.593-11.409
		c4.277-0.736,9.54-6.256,6.909-9.568c-2.632-3.312-7.238-4.784-12.501-1.472c2.961-5.888,3.619-11.041-0.658-12.881
		s-9.869,5.888-9.869,5.888s3.619-9.936-2.961-12.145c-6.58-2.208-9.54,8.464-9.54,8.464s-3.018-11.409-8.939-11.409
		c-5.922,0-8.939,11.409-8.939,11.409s-2.961-10.673-9.54-8.464c-6.58,2.208-2.961,12.145-2.961,12.145s-5.593-7.728-9.869-5.888
		s-3.619,6.992-0.658,12.881c-5.264-3.312-9.869-1.84-12.501,1.472c-2.632,3.312,2.632,8.832,6.909,9.568
		c-8.225,1.472-6.909,14.353,5.593,11.409c12.501-2.944,17.811,12.446,17.811,12.446H243.616z"/>
	<g>
		<path style="fill:#45CE83;" d="M230.002,259.667c0,0-8.154-30.405-40.712-31.762s-71.22,48.159-53.585,66.472
			s31.88-17.636,31.88-17.636s-18.314,33.915,2.713,40.697s22.384-27.81,22.384-27.81s-4.72,27.009,11.884,28.427
			S230.002,259.667,230.002,259.667z"/>
		<path style="fill:#45CE83;" d="M230.002,259.667c0,0,8.154-30.405,40.712-31.762s71.22,48.159,53.585,66.472
			c-17.636,18.314-31.88-17.636-31.88-17.636s18.314,33.915-2.713,40.697c-21.027,6.783-22.384-27.81-22.384-27.81
			s4.72,27.009-11.884,28.427S230.002,259.667,230.002,259.667z"/>
	</g>
	<g>
		<path style="fill:#F4E84A;" d="M230.002,251.763c0,0-5.953-22.196-29.721-23.186s-51.992,35.156-39.118,48.526
			c12.874,13.369,23.273-12.874,23.273-12.874s-13.369,24.758,1.981,29.71c15.35,4.952,16.34-20.302,16.34-20.302
			s-3.446,19.717,8.675,20.752C223.554,295.423,230.002,251.763,230.002,251.763z"/>
		<path style="fill:#F4E84A;" d="M230.002,251.763c0,0,5.953-22.196,29.72-23.186c23.768-0.99,51.992,35.156,39.118,48.526
			c-12.874,13.369-23.273-12.874-23.273-12.874s13.369,24.758-1.981,29.71c-15.35,4.952-16.34-20.302-16.34-20.302
			s3.446,19.717-8.675,20.752C236.45,295.423,230.002,251.763,230.002,251.763z"/>
	</g>
	<path style="fill:#F2D24C;" d="M342.602,182.895c1.963-5.004-1.394-10.648-6.757-11.014c-3.007-0.205-6.103,0.718-8.593,2.86
		l-28.926,24.917l-28.834-35.61c-4.741-5.86-12.83-7.814-19.728-4.772l-9.905,4.384v-8.988h-0.367
		c5.365-3.353,8.946-9.295,8.946-16.088v-28.738h-37.955v28.738c0,6.793,3.58,12.735,8.945,16.088h-0.367v8.509l-8.814-3.905
		c-6.898-3.042-14.987-1.089-19.738,4.772l-28.824,35.61l-28.936-24.917c-5.392-4.64-13.623-3.561-17.632,2.31l-8.73,8.76
		c-2.432,2.442,0.061,6.491,3.337,5.423l9.706-3.184c2.635-0.855,5.535-0.163,7.498,1.801l25.812,25.802
		c4.833,4.843,12.758,4.568,17.256-0.59l28.559-32.751l1.211,11.731c0.814,7.926,3.846,15.455,8.75,21.733
		c5.871,7.529,8.964,16.737,8.964,26.087c0,0.458-0.01,0.906-0.02,1.363c-0.153,4.69-3.286,8.719-7.702,10.113
		c-0.274,0.081-0.549,0.163-0.824,0.224c-1.262,0.295-2.411,0.641-3.154,1.028c-2.432,1.262-4.568,3.032-6.257,5.169
		c-2.595,3.266-4.141,7.407-4.141,11.904c0,4.487,1.547,14.844,4.131,25.283c3.602,14.569,6.145,29.383,7.285,44.35
		c2.533,33.27,5.942,85.434,3.459,97.033c-1.91,8.921-5.462,14.746-8.461,18.299c-2.375,2.813-1.847,7.043,1.156,9.172
		c3.032,2.157,7.234,0.793,8.506-2.696c0.854-2.37,2.076-4.741,3.754-6.186c1.903-1.628,4.273-3.368,6.339-4.823
		c2.879-2.014,4.232-5.576,3.378-8.984l-4.141-16.554c0,0,0.529-9.35,0.641-11.222l5.788-40.583c0.254-1.784,0.055-3.603-0.578-5.29
		l-2.269-6.037c1.679-29.628,3.358-59.316,3.358-59.316c0.834-2.788,1.597-5.667,2.279-8.526c0.682,2.859,1.434,5.738,2.269,8.526
		c0,0,1.679,29.689,3.358,59.316l-2.269,6.036c-0.634,1.687-0.833,3.507-0.578,5.291l5.798,40.583
		c0.102,1.872,0.631,11.222,0.631,11.222l-4.141,16.554c-0.845,3.408,0.499,6.969,3.378,8.984c2.065,1.445,4.446,3.195,6.339,4.823
		c1.689,1.445,2.9,3.815,3.754,6.186c1.272,3.49,5.484,4.853,8.516,2.696l3.375-2.397c1.39-0.987,1.534-3.005,0.277-4.157
		c-3.208-2.939-8.474-9.303-10.967-20.917c-2.482-11.599,0.926-63.753,3.459-97.023c1.139-14.966,3.683-29.78,7.285-44.36
		c2.584-10.439,4.131-20.797,4.131-25.283c0-4.497-1.547-8.628-4.141-11.904c-1.679-2.137-3.815-3.907-6.247-5.169
		c-0.743-0.387-1.893-0.722-3.164-1.028c-0.275-0.061-0.549-0.132-0.814-0.224c-4.416-1.394-7.559-5.423-7.712-10.113
		c-0.315-9.818,2.788-19.555,8.953-27.45c2.442-3.144,4.426-6.593,5.901-10.246c1.475-3.663,2.442-7.529,2.849-11.487l1.211-11.731
		l28.549,32.751c4.497,5.158,12.423,5.433,17.266,0.59l25.812-25.802c0.983-0.988,2.205-1.654,3.513-1.963
		C339.297,187.249,341.588,185.479,342.602,182.895L342.602,182.895z"/>
	<g>
		<circle style="fill:#F28F4C;" cx="214.187" cy="193.717" r="16.719"/>
		<circle style="fill:#F28F4C;" cx="245.818" cy="193.717" r="16.719"/>
	</g>
	<path style="fill:#FFFFFF;" d="M243.707,133.704c0,7.869-6.379,14.247-14.247,14.247s-14.247-6.379-14.247-14.247H243.707z"/>
	<path style="fill:#F4E84A;" d="M257.699,90.33c-4.236,0-9.968-3.232-10.32-7.365c-1.327,1.628-1.418,2.655-3.799,2.655
		c-3.097,0-5.79-1.727-7.17-4.269c-1.433,2.34-4.005,3.907-6.95,3.907c-2.945,0-5.517-1.567-6.95-3.907
		c-1.38,2.543-4.073,4.269-7.169,4.269c-2.381,0-2.472-1.027-3.799-2.655c-0.352,4.133-6.084,7.365-10.32,7.365
		c-0.322,0-0.638-0.024-0.95-0.06l10.211,28.871c12.39-3.641,25.565-3.641,37.955,0l10.211-28.871
		C258.336,90.306,258.021,90.33,257.699,90.33z"/>
	<polygon style="fill:#45CE83;" points="135.677,177.265 126.928,189.846 134.216,204.294 150.48,183.383 	"/>
	<polygon style="fill:#45CE83;" points="324.328,177.265 333.077,189.846 325.789,204.294 309.524,183.383 	"/>
	<path style="fill:#F28F4C;" d="M247.378,82.965c-1.327,1.628-1.418,2.655-3.799,2.655c-3.097,0-5.79-1.727-7.17-4.269
		c-1.433,2.34-4.005,3.907-6.95,3.907c-2.945,0-5.517-1.567-6.95-3.907c-1.38,2.543-4.073,4.269-7.169,4.269
		c-2.381,0-2.472-1.027-3.799-2.655c-0.352,4.133-6.084,7.365-10.32,7.365c-0.322,0-0.638-0.024-0.95-0.06l3.572,10.1
		c16.923-3.762,34.438-3.943,51.413-0.511l3.391-9.589c-0.312,0.036-0.628,0.06-0.95,0.06
		C253.462,90.33,247.731,87.097,247.378,82.965z"/>
	
		<rect x="193.2" y="166.882" transform="matrix(0.2634 0.9647 -0.9647 0.2634 312.6601 -72.6992)" style="fill:#F28F4C;" width="21.468" height="3"/>
	
		<rect x="254.733" y="157.649" transform="matrix(0.9647 0.2633 -0.2633 0.9647 53.379 -61.5268)" style="fill:#F28F4C;" width="3" height="21.468"/>
	<path style="fill:#45CE83;" d="M251.81,109.605c-14.627-4.045-30.073-4.045-44.7,0l3.373,9.536
		c0.933-0.274,1.871-0.527,2.812-0.759c6.01-1.482,12.331,0.756,16.165,5.616l0,0v0c3.835-4.86,10.155-7.098,16.165-5.616
		c0.941,0.232,1.879,0.485,2.812,0.759L251.81,109.605z"/>
	<path style="fill:#F28F4C;" d="M260.478,259.758c-1.679-2.137-3.815-3.907-6.247-5.169c-0.743-0.387-1.893-0.722-3.164-1.028
		c-0.275-0.061-0.549-0.132-0.814-0.224c-12.219,8.455-28.285,8.455-40.494,0c-0.275,0.081-0.549,0.163-0.824,0.224
		c-1.262,0.295-2.411,0.641-3.154,1.028c-2.432,1.262-4.568,3.032-6.257,5.169l2.971,2.157c0.488,0.355,0.981,0.699,1.478,1.032
		c10.37,6.95,18.802,16.422,23.887,27.823l2.146,4.811c0,0,0.868-1.947,2.143-4.804c5.085-11.4,13.516-20.877,23.882-27.831
		c0.497-0.333,0.989-0.677,1.476-1.032L260.478,259.758z"/>
	<path style="fill:#F28F4C;" d="M221.551,452.094c-2.065,1.455-4.436,3.195-6.339,4.823c-1.679,1.445-2.9,3.815-3.754,6.186
		c-1.272,3.49-5.474,4.853-8.506,2.696l-3.591-2.544c-1.302-0.926-1.384-2.818-0.193-3.897c0.773-0.702,1.669-1.597,2.625-2.727
		c2.991-3.541,6.552-9.371,8.465-18.304c1.15-5.362,1.038-25.884,0.336-42.702l7.519,6.624l4.609,4.06l-1.292,9.025
		c-0.112,1.872-0.641,11.222-0.641,11.222l4.141,16.554C225.783,446.519,224.43,450.08,221.551,452.094z"/>
	<path style="fill:#F28F4C;" d="M260.877,459.577c1.085,0.954,0.991,2.662-0.186,3.498l-3.835,2.723
		c-3.032,2.157-7.244,0.794-8.516-2.696c-0.855-2.371-2.065-4.741-3.754-6.186c-1.893-1.628-4.273-3.378-6.339-4.823
		c-2.879-2.014-4.222-5.576-3.378-8.984l4.141-16.554c0,0-0.529-9.35-0.631-11.222l-1.333-9.36l12.179-4.212
		c-0.722,16.981-0.845,31.164,0.315,36.567C252.132,450.4,257.718,456.8,260.877,459.577z"/>
	<polygon style="fill:#F28F4C;" points="219.577,449.785 221.103,459.45 222.883,459.45 225.104,446.298 	"/>
	<g>
		<polygon style="fill:#F28F4C;" points="240.404,449.785 238.878,459.45 237.097,459.45 234.877,446.298 		"/>
	</g>
</g>
</svg>