<?xml version="1.0" encoding="iso-8859-1"?>
<!-- Uploaded to: SVG Repo, www.svgrepo.com, Generator: SVG Repo Mixer Tools -->
<svg version="1.1" id="Capa_1" xmlns="http://www.w3.org/2000/svg" xmlns:xlink="http://www.w3.org/1999/xlink" 
	 viewBox="0 0 423.503 423.503" xml:space="preserve">
<g>
	<path style="fill:#460929;" d="M222.489,408.878l-21.447-7.072L205.652,314h7.303c4.142,0,7.5-3.358,7.5-7.5v-72.69
		c0-0.01,0-81.24,0-81.24c0.718,0.016,1.436,0.029,2.153,0.029c21.454,0,42.12-7.237,59.089-20.862
		c19.719-15.832,32.092-38.396,34.84-63.534c0.45-4.118-2.523-7.82-6.641-8.271c-4.12-0.451-7.82,2.522-8.271,6.641
		c-2.313,21.155-12.726,40.144-29.32,53.468c-15.116,12.137-33.714,18.226-52.899,17.471c-3.033-9.991-12.327-17.285-23.296-17.285
		h-3.233c-1.369-1.819-3.538-3-5.99-3s-4.621,1.181-5.99,3h-20.074c-1.369-1.819-3.538-3-5.99-3s-4.621,1.181-5.99,3h-3.234
		c-10.958,0-20.246,7.28-23.288,17.256c-25.707,3.187-45.675,25.152-45.675,51.708c0,26.192,19.423,47.925,44.62,51.573V306.5
		c0,4.142,3.358,7.5,7.5,7.5h7.302l4.611,87.807l-21.447,7.071c-3.934,1.297-6.071,5.538-4.774,9.472
		c1.04,3.154,3.972,5.153,7.121,5.153c0.779,0,1.57-0.122,2.35-0.379l26.889-8.866c3.212-1.06,5.318-4.138,5.141-7.516L151.092,314
		h39.54l-4.87,92.742c-0.177,3.378,1.929,6.457,5.141,7.516l26.889,8.865c0.78,0.257,1.571,0.379,2.35,0.379
		c3.149,0,6.082-2,7.121-5.153C228.56,414.416,226.422,410.175,222.489,408.878z M162.335,135.226h17.053v44.247
		c0,4.702-3.825,8.527-8.527,8.527s-8.526-3.825-8.526-8.527V135.226z M147.335,135.226v44.247
		c0,12.973,10.554,23.527,23.526,23.527s23.527-10.554,23.527-23.527v-44.247h1.723c5.133,0,9.31,4.161,9.34,9.287
		c0,0.03,0.003,0.059,0.003,0.088l0,81.708h-69.186v-81.74c0-5.152,4.191-9.343,9.343-9.343H147.335z M136.269,299v-57.69h44.746
		V299H136.269z M196.015,241.31h9.44V299h-9.44V241.31z M91.648,189.189c0-17.899,12.735-32.88,29.62-36.358v72.716
		C104.383,222.069,91.648,207.089,91.648,189.189z"/>
	<path style="fill:#A9603A;" d="M206.745,59.087c0-19.791-16.101-35.892-35.891-35.892c-19.781,0-35.875,16.101-35.875,35.892
		c0,19.781,16.093,35.875,35.875,35.875C190.644,94.962,206.745,78.869,206.745,59.087z"/>
	<path style="fill:#460929;" d="M170.854,109.962c28.061,0,50.891-22.822,50.891-50.875c0-10.375-3.127-20.03-8.479-28.085
		l0.951-0.856c3.078-2.772,3.327-7.514,0.555-10.592c-2.772-3.079-7.514-3.327-10.592-0.555l-0.949,0.854
		c-1.602-1.325-3.295-2.542-5.053-3.666l0.523-1.174c1.685-3.784-0.017-8.217-3.801-9.902c-3.785-1.686-8.217,0.017-9.902,3.801
		l-0.513,1.153c-1.998-0.556-4.041-1.002-6.13-1.312V7.5c0-4.142-3.358-7.5-7.5-7.5s-7.5,3.358-7.5,7.5v1.253
		c-2.083,0.31-4.121,0.754-6.115,1.309l-0.512-1.149c-1.685-3.784-6.12-5.486-9.902-3.801c-3.784,1.685-5.486,6.118-3.801,9.902
		l0.521,1.17c-1.759,1.124-3.452,2.342-5.055,3.667l-0.946-0.852c-3.078-2.771-7.821-2.523-10.592,0.555
		c-2.771,3.078-2.523,7.82,0.555,10.592L128.457,31c-5.351,8.056-8.478,17.711-8.478,28.087
		C119.979,87.14,142.802,109.962,170.854,109.962z M134.979,59.087c0-19.791,16.093-35.892,35.875-35.892
		c19.79,0,35.891,16.101,35.891,35.892c0,19.781-16.101,35.875-35.891,35.875C151.073,94.962,134.979,78.869,134.979,59.087z"/>
	<path style="fill:#A9603A;" d="M136.269,144.569v81.74h69.186l0-81.708c0-0.029-0.003-0.058-0.003-0.088
		c-0.031-5.126-4.207-9.287-9.34-9.287h-1.723v44.247c0,12.973-10.554,23.527-23.527,23.527s-23.526-10.554-23.526-23.527v-44.247
		h-1.724C140.46,135.226,136.269,139.417,136.269,144.569z"/>
	<path style="fill:#A9603A;" d="M170.862,188c4.702,0,8.527-3.825,8.527-8.527v-44.247h-17.053v44.247
		C162.335,184.175,166.16,188,170.862,188z"/>
	<rect x="136.269" y="241.31" style="fill:#FFB13A;" width="44.746" height="57.69"/>
	<rect x="196.015" y="241.31" style="fill:#FFB13A;" width="9.44" height="57.69"/>
	<path style="fill:#FFFFFF;" d="M323.332,258.252c-1.728-6.064-3.693-11.75-5.893-16.942h-54.443
		c-2.2,5.192-4.165,10.878-5.893,16.942H323.332z"/>
	<path style="fill:#EDA27A;" d="M326.95,273.252h-73.467c-3.186,15.832-4.904,33.465-4.904,51.653
		c0,31.781,5.224,61.896,14.416,83.596h54.443c9.192-21.699,14.416-51.814,14.416-83.596
		C331.854,306.717,330.137,289.083,326.95,273.252z"/>
	<path style="fill:#460929;" d="M341.882,271.531c1.661-1.376,2.72-3.454,2.72-5.779c0-3.511-2.416-6.45-5.674-7.267
		c-2.674-10.295-5.981-19.709-9.855-27.887c-1.241-2.619-3.879-4.289-6.778-4.289h-64.157c-2.898,0-5.537,1.67-6.778,4.29
		c-3.873,8.178-7.18,17.592-9.854,27.886c-3.258,0.817-5.674,3.756-5.674,7.267c0,2.325,1.059,4.403,2.72,5.779
		c-3.236,16.525-4.973,34.72-4.973,53.375c0,36.076,6.481,70.449,17.781,94.306c1.241,2.62,3.88,4.29,6.778,4.29h64.157
		c2.898,0,5.537-1.67,6.778-4.29c11.3-23.855,17.781-58.229,17.781-94.306C346.854,306.25,345.118,288.056,341.882,271.531z
		 M262.996,408.501c-9.192-21.7-14.416-51.815-14.416-83.596c0-18.188,1.718-35.822,4.904-51.653h73.467
		c3.186,15.832,4.904,33.465,4.904,51.653c0,31.782-5.224,61.896-14.416,83.596H262.996z M317.438,241.31
		c2.2,5.192,4.165,10.878,5.893,16.942h-66.229c1.728-6.064,3.693-11.75,5.893-16.942H317.438z"/>
</g>
</svg>